<?xml version="1.0" encoding="utf-8"?>
<!-- Generator: Adobe Illustrator 21.1.0, SVG Export Plug-In . SVG Version: 6.00 Build 0)  -->
<svg version="1.1" id="Layer_1" xmlns="http://www.w3.org/2000/svg" xmlns:xlink="http://www.w3.org/1999/xlink" x="0px" y="0px"
	 viewBox="0 0 69 81" style="enable-background:new 0 0 69 81;" xml:space="preserve">
<title>53 all</title>
<path d="M49.5,9.4H37.9c-2.2,0-4,1.8-4,4s1.8,4,4,4h11.6c1.1,0,2,0.9,2,2v42.8c0,1.1-0.9,2-2,2H37.9c-2.2,0-4,1.8-4,4s1.8,4,4,4
	h11.6c5.5,0,10-4.5,10-10V19.4C59.5,13.8,55,9.4,49.5,9.4z"/>
<path d="M13.5,44.8h18.2l-6.5,7c-1.5,1.6-1.4,4.2,0.2,5.7c1.6,1.5,4.2,1.4,5.7-0.2l0,0l12.8-13.7c0.1-0.1,0.1-0.2,0.2-0.2
	s0.2-0.2,0.2-0.3c0.1-0.1,0.1-0.2,0.2-0.4c0-0.1,0.1-0.2,0.2-0.3c0.1-0.1,0.1-0.3,0.1-0.4c0-0.1,0.1-0.2,0.1-0.3
	c0.1-0.2,0.1-0.5,0.1-0.8l0,0c0-0.3,0-0.5-0.1-0.8c0-0.1-0.1-0.2-0.1-0.3c0-0.2-0.1-0.3-0.2-0.5c0-0.1-0.1-0.2-0.2-0.3
	c-0.1-0.1-0.1-0.2-0.2-0.4c-0.1-0.1-0.2-0.2-0.2-0.3s-0.1-0.2-0.2-0.2L31,24.3c-1.5-1.6-4.1-1.7-5.7-0.2c-1.6,1.5-1.7,4.1-0.2,5.7
	l6.5,7H13.5c-2.2,0-4,1.8-4,4S11.3,44.8,13.5,44.8z"/>
</svg>
